<?xml version="1.0" encoding="UTF-8"?>
<svg xmlns="http://www.w3.org/2000/svg" version="1.1" viewBox="0 0 143.96 135.55">
  <!-- Generator: Adobe Illustrator 29.3.1, SVG Export Plug-In . SVG Version: 2.1.0 Build 151)  -->
  <g id="Livello_3">
    <path d="M142.24,48.77c.64-1.4,1.15-2.85,1.46-4.39.55-2.83.18-5.02-.83-6.94-.36-.38-.66-.83-.85-1.36-.85-1.18-1.94-2.28-3.19-3.4-.39-.26-.78-.52-1.13-.82-1.92-.64-3.83-1.74-6.57-8-4.56-11.22-13.17-19.13-24.26-22.29-10.83-3.09-22.87-1.23-31.65,4.84-.69-.13-2.33-1.05-3.45-1.67-5.27-2.94-14.06-7.85-28.67-1.98-9.31,3.12-13.69,9.45-17.55,15.05-3.3,4.77-5.9,8.54-11.17,10.28-.81.26-1.82.5-2.89.76-4.27,1.04-10.12,2.46-11.3,7.91-1.08,4.97,2.79,8.98,6.5,11.97,2.88,3.59,3.44,7.74,4.26,13.89,1.29,9.92,3.4,20.66,10.02,32.07.02.12.03.24.05.37,1.19,9.04,3.97,30.2,25.16,39.25l.52.22.56.12c3.01.62,5.83.91,8.5.91,19.2,0,30.03-15.07,37.99-31.04,8.32-3.18,16.4-14.7,25.5-28,1.94-4.32,4.17-8.51,7.12-12.43,3.89-5.17,8.62-10.34,14.27-13.78.39-.63.93-1.16,1.61-1.53ZM110.8,68.79c-6.35,9.29-16.98,24.83-21.53,25.25l-3.2.3-1.39,2.89c-10.4,21.69-20.14,29.15-34.57,26.42-14.78-6.64-16.78-21.86-17.86-30.08-.07-.57-.14-1.09-.21-1.58l-.16-1.14-.6-.99c-5.69-9.45-7.75-18.31-9.1-28.73-.96-7.17-1.88-13.95-7.22-20.17l-.36-.42-.43-.34c-.12-.09-.23-.18-.33-.27.11-.03.22-.05.32-.08,1.21-.29,2.46-.6,3.7-.99,8.94-2.95,13.23-9.15,17.01-14.62,3.43-4.96,6.13-8.88,11.95-10.78l.37-.14c9.67-3.94,14.44-1.27,19.05,1.3,3.59,2.01,8.51,4.75,14.19,1.9l.42-.21.38-.28c5.98-4.37,14.83-5.77,22.53-3.57,5.43,1.55,12.77,5.53,16.89,15.72l.06.14c3.84,8.79,7.79,11.96,11.61,13.61-7.03,5.67-14.11,16.02-21.52,26.85ZM136.73,41.54l-1.13-.41s0-.1.01-.15l1.32.51-.2.04Z" fill="#fff"/>
  </g>
  <g id="Livello_1">
    <g id="Mouth">
      <g id="Color">
        <path d="M102.99,67.42l-.18.19c-5.44,5.73-8.69,11.5-9.66,17.15-.91,5.32-1.98,9.27-3.53,12.98,2.74-.87,11.86-5.35,24.98-27.93,6.79-11.68,13.28-18.93,18.56-23.43-6.53,3.53-11.03,6-15.7,9.18-9.09,6.19-11.83,9.07-14.48,11.86Z" fill="#e66ba5"/>
        <path d="M133.72,45.17c-.26-.67-.99-1.04-1.69-.86-4.6,1.19-7.99.79-11.27.4-.91-.11-1.85-.22-2.8-.29-3.97-.31-6.94-1.18-9.82-2.02-3.98-1.17-7.75-2.28-13.83-2.01h-.35c-1.63.08-4.35.2-7.5.84-1.77.36-3.14,1.03-4.58,1.74-1.36.67-2.91,1.43-5.16,2.12-.79.24-1.59.46-2.39.66-2.32.13-4.59,0-6.74-.39-2.3-.41-4.19-1.06-5.86-1.63-2.78-.96-5.42-1.86-9.08-1.39-1.13.15-2.06.42-2.98.68-.45.13-.91.27-1.39.38-10.93,2.6-15.79,18.24-18.69,27.59-3.71,11.95-2.8,22.27-2.24,26.14v.05c.02.08.03.17.05.29.44,2.65,4.76,26.08,21.15,31.15,2.36.73,4.55.95,6.4.95,2.1,0,3.76-.29,4.72-.46,7.7-1.35,14.7-6.1,20.8-14.11,4.86-6.38,7.78-13,9.18-16.19,1.77-4.01,2.95-8.19,3.94-13.98.96-5.57,4.17-11.26,9.54-16.92l.18-.19c2.51-2.64,5.35-5.64,14.4-11.8,4.56-3.1,9.04-5.57,15.35-8.98.64-.34.92-1.11.65-1.78Z" fill="#6366ac"/>
        <path d="M90.38,41.09s.01-.01.02-.02c.31-.34.97-.25,1.48-.11.81-.06,1.53-.09,2.1-.11h.35c6.01-.28,9.74.82,13.68,1.98,2.89.85,5.88,1.73,9.91,2.04.93.07,1.83.18,2.78.29,4.82.57,9.81,1.16,18.23-3.02.38-.32.46-.77.39-1.11-.08-.39-.37-.84-.97-.93-1.42-.23-2.69-.61-3.82-1.09-5.28-2.27-7.75-7.05-10.34-12.05-2.21-4.27-4.49-8.68-8.67-12.31-12.29-10.66-24.7-6.65-30-4.93-.85.27-1.76.77-1.93.87-.04.02-.08.04-.12.06-2.25,1.07-3.61,1.88-4.61,2.48-.63.38-1.09.65-1.52.84-2.7,1.17-5.51-.54-8.49-2.35-1.35-.82-2.74-1.67-4.2-2.31-7.67-3.35-15.87-.48-18.96.6-7.32,2.56-10.89,7.74-14.35,12.76-3.52,5.1-7.16,10.38-14.69,12.68-1.47.45-5.29,1.45-8.23,2.22-.45.12-.77.46-.85.91-.09.46.09.89.46,1.17.89.65,1.73,1.36,2.51,2.11.02,0,.03.02.05.03,1.21.93,5.7,4.08,12.7,5.77,8.9,2.15,16.57-.05,20.35-1.56.03-.01.06,0,.08-.02,1.42-.98,2.97-1.72,4.67-2.12.5-.12.98-.26,1.44-.4.87-.26,1.78-.52,2.88-.66.79-.1,1.51-.13,2.21-.12.94-.1,1.63-.11,1.72-.05.06.04.1.09.1.09.04.04.06.08.08.13,1.64.26,3.14.77,4.76,1.33,1.77.61,3.59,1.23,5.93,1.65,2.71.48,5.56.57,8.46.27.21-.15.41-.29.63-.43,4.7-3.13,9.98-4.17,13.78-4.55Z" fill="#fbd100"/>
        <path d="M16.8,46.4c-1.47-.63-2.73-1.28-3.77-1.88,3.82,5.05,4.55,10.43,5.45,17.11.67,4.97,1.43,10.61,3.68,17.24.83,2.45,2.19,6.43,5.14,11.58-.09-4.99.4-11.83,2.73-19.33,2.17-6.99,5.45-17.54,11.53-23.37-4.29,1.34-10.96,2.55-18.49.73-2.38-.57-4.48-1.31-6.27-2.08Z" fill="#e66ba5"/>
      </g>
      <path id="LIne" d="M141.21,40.65c-.25-1.28-1.25-2.24-2.54-2.45-7.09-1.17-9.6-6.01-12.77-12.13-2.18-4.22-4.66-9.01-9.11-12.88-13.1-11.37-26.24-7.12-31.85-5.31-.99.32-1.99.86-2.28,1.02-2.34,1.11-3.8,1.99-4.77,2.57-.57.34-.98.59-1.3.73-1.79.78-4.08-.62-6.73-2.23-1.4-.85-2.85-1.74-4.43-2.43-8.35-3.66-17.39-.49-20.37.55-7.91,2.77-11.66,8.21-15.3,13.48-3.49,5.06-6.79,9.83-13.67,11.93-1.13.34-3.95,1.11-8.15,2.2-1.16.3-2.03,1.22-2.26,2.4-.23,1.18.24,2.36,1.21,3.08,1.4,1.03,2.68,2.21,3.78,3.49,4.25,4.95,4.98,10.37,5.9,17.23.68,5.06,1.45,10.8,3.77,17.6,1.2,3.54,2.77,7.78,6.1,13.3.11,1.88.29,3.4.44,4.46.01.08.03.18.05.31.44,2.69,4.82,26.38,21.49,31.54,2.4.74,4.66.97,6.55.97,2.18,0,3.89-.3,4.8-.46,11.98-2.1,22.08-12.17,30.04-29.91,2.94-.79,12.65-5.14,26.46-28.91,9.27-15.95,17.91-23.43,23.53-26.9,0,0,.07-.03.06-.05,0,0-.01,0-.02,0,.02-.01.05-.02.07-.03-.02.01-.03.03-.05.04.08-.04.16-.08.24-.13.03-.02.06-.04.1-.07.04-.03.09-.05.13-.09.03-.03.06-.06.09-.09.04-.04.07-.07.1-.11.03-.03.05-.07.08-.11.03-.04.06-.08.08-.12.02-.04.04-.08.05-.12,0,0,0-.02.01-.03,0,0,0,0,0,0,.01-.04.03-.07.04-.11-.01.04-.03.07-.04.1.45-.66.63-1.49.47-2.32ZM26.39,86.77c-1.75-3.53-2.71-6.32-3.35-8.2-2.22-6.54-2.98-12.13-3.64-17.06-.72-5.34-1.37-10.13-3.73-14.57h0c1.99.9,4.39,1.8,7.16,2.46,2.82.68,5.52.95,8.02.95,2.92,0,5.58-.37,7.86-.87-4.88,6.17-7.67,15.15-9.6,21.37-1.83,5.89-2.54,11.39-2.73,15.93ZM87.49,97.86c-7.59,17.24-17.09,26.97-28.22,28.92-1.65.29-5.51.97-10.01-.42-6.16-1.9-11.21-6.95-15.01-15-3.13-6.63-4.29-13.05-4.5-14.27-.02-.1-.03-.18-.04-.24,0,0,0-.06,0-.06-.54-3.72-1.42-13.61,2.15-25.1,2.75-8.86,7.36-23.7,16.97-25.99.55-.13,1.05-.28,1.54-.42.84-.25,1.63-.48,2.58-.6,3.12-.4,5.28.34,8.01,1.28,1.75.6,3.74,1.28,6.22,1.72,1.59.28,3.21.43,4.87.46-4.21,4.15-7.36,9.81-9.22,16.66-1.81,6.65-1.79,12.03-1.79,12.25,0,.79.65,1.42,1.43,1.42h.01c.79,0,1.43-.65,1.42-1.44,0-.21,0-20.63,13.77-29.81,6.06-4.04,13.04-4.33,16.4-4.47l.35-.02c5.69-.24,9.27.81,13.06,1.92,2.99.88,6.08,1.79,10.3,2.11.89.07,1.77.17,2.7.28,2.05.24,4.23.5,6.72.38-4.06,2.25-7.39,4.19-10.82,6.53-9.26,6.3-12.2,9.39-14.79,12.12l-.18.19c-5.7,6.01-9.12,12.11-10.16,18.15-.96,5.58-2.09,9.6-3.77,13.42ZM113.79,69.34c-10.68,18.38-18.61,24.57-22.48,26.64,1.15-3.19,2.01-6.67,2.76-11.06.94-5.47,4.11-11.07,9.41-16.66l.18-.19c2.61-2.75,5.31-5.6,14.32-11.73,3.03-2.06,5.9-3.78,9.4-5.73-4.19,4.46-8.83,10.51-13.6,18.73ZM138.38,41.35c-8.09,3.99-12.91,3.43-17.56,2.87-.92-.11-1.87-.22-2.82-.3-3.92-.3-6.87-1.17-9.71-2-3.85-1.13-7.83-2.3-13.99-2.03h-.27c1.08-1.4,1.99-2.93,2.69-4.57.83-1.92,1.36-3.95,1.6-6.03.09-.78-.48-1.49-1.26-1.58-.79-.09-1.49.48-1.58,1.26-.2,1.81-.67,3.56-1.38,5.23-.97,2.25-2.36,4.26-4.14,5.99-3.87.42-9.14,1.51-13.87,4.67-.14.1-.28.2-.42.3-2.74.27-5.42.17-7.98-.28-2.26-.4-4.06-1.02-5.79-1.61-1.5-.52-2.96-1.01-4.56-1.3-.06-.05-.13-.11-.2-.15-5.43-3.34-9.55-8.17-11.59-13.61-.28-.74-1.1-1.11-1.84-.84-.74.28-1.11,1.1-.84,1.84,1.82,4.84,5.11,9.24,9.43,12.68-1.03.16-1.89.4-2.72.64-.47.14-.92.27-1.4.38-1.77.42-3.38,1.17-4.85,2.17-.01,0-.02,0-.03,0-3.67,1.46-11.12,3.6-19.78,1.52-6.82-1.64-11.17-4.7-12.35-5.6-.02-.01-.03-.02-.05-.03h0c-.79-.75-1.63-1.47-2.53-2.12-.03-.02-.12-.09-.09-.23.03-.14.13-.17.17-.18,4.3-1.12,7.08-1.87,8.27-2.23,7.84-2.39,11.57-7.81,15.19-13.04,3.53-5.11,6.86-9.94,13.89-12.4,3-1.05,10.95-3.84,18.27-.63,1.4.62,2.77,1.45,4.09,2.25,3.05,1.86,6.2,3.78,9.36,2.41.49-.21.99-.51,1.63-.9.98-.59,2.32-1.39,4.52-2.43.06-.03.13-.06.18-.09.1-.06.99-.54,1.77-.8,8.51-2.75,18.62-4.34,29.1,4.75,4.04,3.51,6.28,7.84,8.45,12.03,3.26,6.3,6.33,12.25,14.84,13.64.03,0,.08.01.13.06.05.05.07.11.07.13.01.07,0,.13-.02.15Z" fill="#403b3a"/>
      <g id="Shadow">
        <path d="M113.71,31.56c-1.79,0-3.2-.83-6.3-2.66-.82-.48-1.74-1.03-2.81-1.64-.11-.06-11.04-6.33-13.42-9.63-.19-.27-.33-.58-.34-.59-.28-.67-.36-1.32-.23-1.93.22-.99,3.1-2.48,5.61-2.89.47-.08.96-.11,1.46-.11,3.12,0,6.92,1.52,10.69,4.29,3.32,2.43,6.39,5.67,8.2,8.65,1.35,2.22,1.87,4.11,1.38,5.06-.56,1.08-2.69,1.32-3.49,1.41-.27.03-.51.04-.76.04ZM44.18,20.04c1.75-.21,3.37-.64,4.68-1.24.31-.14.53-.27.71-.41.1-.08.19-.16.27-.26.73-.86.67-1.65.48-2.16-.25-.69-.86-1.25-1.49-1.35-.37-.06-.77-.1-1.17-.1-2.48,0-4.8,1.2-5.91,2.31-.5.5-.67.9-.67,1.1,0,1.34.93,2.15,2.49,2.15.2,0,.4-.01.61-.04ZM52.81,120.7c.41,0,.77-.05,1.11-.14.68-.18,1.25-.64,1.6-1.29.4-.74.49-1.62.24-2.43-.37-1.17-1.96-2.04-3.36-2.8-.57-.31-1.11-.6-1.57-.91-2.74-1.86-4.62-3.73-5.91-5.89-1.78-2.99-3.02-6.6-3.8-11.05-.49-2.78-.7-5.53-.64-8.18.05-2.19.29-4.1.51-5.79.35-2.77.6-4.78-.24-6.03-.45-.67-1.19-1.08-1.98-1.08-.43,0-.85.12-1.21.35-1.35.86-2.01,2.76-2.53,4.68-.72,2.67-1.06,5.67-1.07,9.44-.01,5.96.77,11.29,2.32,15.84.49,1.45,1.07,2.83,1.72,4.1,2.93,5.78,7.85,9.88,13.15,10.98.64.13,1.18.19,1.65.19h0Z" fill="#fbf2da"/>
        <path d="M97.69,12.97h0c6.21,0,14.55,6.6,18.15,12.52,1.51,2.48,1.54,3.84,1.35,4.22-.16.31-.78.72-2.82.95-.23.03-.45.04-.66.04-1.56,0-2.91-.8-5.87-2.54-.82-.48-1.74-1.03-2.81-1.64-3.02-1.72-11.26-6.77-13.15-9.39-.04-.06-.19-.2-.24-.42-.28-1.2,2.2-3.18,4.73-3.63.58-.1,1.05-.11,1.32-.1h0ZM97.69,11.26c-.54,0-1.07.04-1.59.13-2.27.37-5.95,1.87-6.31,3.55-.16.73-.09,1.56.28,2.45,0,0,.17.39.43.74,2.51,3.49,13.69,9.88,13.69,9.88,5.17,2.95,6.98,4.41,9.53,4.41.27,0,.56-.02.85-.05,1.02-.12,3.38-.39,4.15-1.87,2.34-4.53-10.76-19.25-21.03-19.24h0ZM47.66,15.37c.35,0,.69.03,1.02.08.28.05.67.36.83.8.16.44.05.87-.33,1.31-.04.05-.09.09-.14.14-.16.13-.39.24-.54.31-1.23.57-2.76.97-4.42,1.17-.18.02-.35.03-.51.03-1.54,0-1.62-.87-1.63-1.24.24-.7,2.73-2.61,5.72-2.61ZM47.66,13.66c-3.77,0-7.45,2.56-7.44,4.28,0,1.73,1.2,3,3.35,3,.23,0,.46-.01.71-.04,1.62-.19,3.37-.59,4.94-1.32.3-.14.61-.3.88-.51.14-.11.27-.23.4-.38,1.81-2.13.25-4.62-1.52-4.92-.43-.07-.87-.11-1.31-.11h0ZM38.78,75.96c.51,0,.97.25,1.26.7.67.99.42,2.96.1,5.45-.22,1.71-.46,3.64-.51,5.88-.06,2.71.16,5.52.65,8.35.8,4.55,2.07,8.25,3.91,11.34,1.35,2.27,3.31,4.23,6.16,6.16.5.34,1.05.64,1.64.96,1.2.65,2.69,1.46,2.95,2.31.18.58.12,1.24-.17,1.77-.17.31-.49.71-1.07.87-.26.07-.55.11-.89.11-.42,0-.9-.06-1.48-.18-5.05-1.04-9.75-4.98-12.56-10.53-.63-1.24-1.19-2.58-1.67-3.99-1.52-4.46-2.29-9.7-2.28-15.56,0-3.7.34-6.63,1.04-9.22.3-1.1.91-3.38,2.16-4.18.22-.14.48-.22.75-.22ZM38.78,74.25c-.58,0-1.16.16-1.67.49-1.68,1.07-2.41,3.37-2.9,5.18-.84,3.13-1.09,6.43-1.1,9.66-.01,5.33.61,10.98,2.37,16.12.49,1.45,1.08,2.86,1.76,4.21,2.79,5.5,7.71,10.19,13.74,11.43.6.12,1.22.21,1.83.21.45,0,.9-.05,1.34-.17,2.04-.55,3.05-2.83,2.43-4.81-.64-2.04-3.64-3.07-5.27-4.17-2.22-1.5-4.26-3.29-5.65-5.61-1.94-3.27-3.04-7.03-3.69-10.76-.46-2.64-.69-5.33-.63-8.02.14-5.93,1.73-9.93.12-12.32-.64-.96-1.67-1.46-2.69-1.46h0Z" fill="#403b3a"/>
      </g>
    </g>
  </g>
</svg>