<?xml version="1.0" encoding="UTF-8"?>
<svg id="Livello_1" xmlns="http://www.w3.org/2000/svg" version="1.1" viewBox="0 0 156.19 135.05">
  <!-- Generator: Adobe Illustrator 29.3.1, SVG Export Plug-In . SVG Version: 2.1.0 Build 151)  -->
  <g id="Livello_3">
    <path d="M77.95,135.05h-.72c-4.23-.13-13.03-.4-36.63-22.73C16.5,89.53-.91,73.06.02,49.02.73,30.83,13.07,16.83,15.54,14.21c2.55-2.69,7.79-8.24,16.59-11.55,14.22-5.35,30.66-2.4,40.91,7.35,1.97,1.88,3.73,4.01,5.23,6.31,2.42-3.07,5.32-5.8,8.65-8.12C95.09,2.48,105.33-.24,115.01.71c10.74,1.07,20.94,7.19,28.72,17.25,6.69,8.64,11.14,19.55,12.21,29.93l.64,6.25h-.41c-.29,10.54-4.2,20.59-12.04,31.16-7.8,10.51-18.53,20.18-29.88,30.42l-.1.09c-14.37,12.95-26.21,19.24-36.2,19.24ZM77.49,123.71h.46c4.78,0,13.63-2.83,28.6-16.32l.1-.09c10.92-9.85,21.24-19.15,28.37-28.76,7.58-10.22,10.64-19.59,9.62-29.49l-.09-.86c-1.01-8.07-4.55-16.51-9.79-23.28-5.85-7.57-13.26-12.15-20.87-12.91-7.02-.69-14.5,1.31-20.48,5.49-3.07,2.14-5.61,4.72-7.56,7.68-.97,1.46-1.78,3.02-2.42,4.63-.11.28-.22.59-.35,1.02l-6.2,20.69-4.76-21.07c-1.05-4.65-3.5-8.99-6.9-12.22-7.17-6.81-18.87-8.8-29.11-4.95-6.36,2.39-10.09,6.34-12.32,8.7-1.99,2.12-11.9,13.34-12.45,27.49-.73,18.9,13.48,32.35,37.03,54.62,20.21,19.12,26.86,19.56,29.1,19.63Z" fill="#fff"/>
  </g>
  <g id="Livello_11" data-name="Livello_1">
    <g id="Heart">
      <g id="Heart1">
        <path d="M79.22,28.12c.76-1.91,1.72-3.74,2.85-5.46,2.31-3.49,5.31-6.5,8.74-8.9,6.8-4.75,15.33-7.1,23.53-6.29,19.4,1.91,33.02,23.44,34.83,41.11,2.48,24.29-17.28,42.09-39.57,62.18-19.13,17.23-28.7,17.59-32.16,17.48-4.1-.13-11.8-1.6-32.17-20.87C21.68,85.05,6.01,70.23,6.83,49.28c.65-16.67,12.64-29.32,13.69-30.43,2.52-2.67,6.81-7.12,14.02-9.84,11.14-4.19,25.04-2.44,33.83,5.92,5.23,4.97,8.47,11.99,8.84,19.2,0,0,.01-.02.02-.03.97-1.91,1.2-4,1.99-5.98Z" fill="#e66ba5"/>
        <path d="M77.97,129.38h-.55c-3.26-.1-10.88-.35-32.91-21.18C20.64,85.62,4.87,70.7,5.7,49.24c.63-16.2,11.76-28.79,13.98-31.15,2.41-2.55,6.86-7.27,14.46-10.13,12.22-4.6,26.29-2.13,35.01,6.15,4.26,4.04,7.23,9.37,8.52,15.08.15-.49.31-.99.51-1.49.78-1.96,1.78-3.86,2.96-5.66,2.35-3.56,5.39-6.65,9.04-9.2,7.08-4.95,15.94-7.31,24.29-6.49,9.17.9,17.97,6.26,24.79,15.08,6.06,7.84,10.09,17.69,11.05,27.04,1.17,11.4-2.24,22.03-10.71,33.45-7.48,10.09-18.05,19.61-29.23,29.68-13.1,11.8-23.99,17.78-32.4,17.78ZM46.81,7.92c-3.98,0-8.02.7-11.87,2.15-7.11,2.68-11.33,7.15-13.6,9.55-2.14,2.27-12.79,14.3-13.38,29.7-.8,20.44,14.68,35.08,38.1,57.23,18.97,17.95,26.76,20.42,31.43,20.57,7.88.26,18.43-5.53,31.37-17.19,22.34-20.13,41.63-37.51,39.2-61.23-.9-8.8-4.86-18.48-10.59-25.89-6.44-8.32-14.69-13.37-23.23-14.21-7.82-.77-16.13,1.45-22.78,6.09-3.41,2.38-6.26,5.28-8.45,8.6-1.1,1.67-2.03,3.43-2.75,5.25-.31.78-.53,1.59-.76,2.44-.32,1.19-.66,2.43-1.27,3.63v.02c-.23.45-.75.7-1.24.6-.5-.11-.87-.53-.9-1.04-.36-6.94-3.46-13.66-8.5-18.44-5.37-5.11-12.96-7.83-20.79-7.83h0Z" fill="#403b3a"/>
      </g>
      <g id="Shadow">
        <path d="M116.21,75.58c-.02-.76.25-2.35.51-3.89.83-4.97,2.22-13.3.9-24.76-.64-5.57-1.7-9.93-2.47-13.11-.55-2.27-1.18-4.83-.88-5.38.03,0,.09-.02.18-.02,2.54,0,10.39,6.43,12.96,15.22,2.76,9.46-1.34,19.98-6.09,26.68-2.28,3.21-4.23,4.85-5.1,5.26h-.01ZM112.39,84.35c-.66.47-1.37.89-2.1,1.26-2.03,1.02-4.18,1.61-6.36,1.76.83,1.14,1.51,2.41,1.99,3.78.49,1.37.77,2.78.85,4.2.66-.47,1.37-.89,2.1-1.26,2.02-1.02,4.18-1.61,6.36-1.76-.83-1.14-1.51-2.41-1.99-3.78-.49-1.37-.77-2.78-.85-4.2Z" fill="#fbf2da"/>
        <path d="M128.48,43.32c-2.64-9.05-10.8-16.03-14.04-16.03-.3,0-.55.06-.76.18-1.98,1.15,1.42,7.45,2.82,19.59,2.15,18.66-3,28.96-.9,29.71.08.03.17.04.27.04,3.46,0,17.27-17.56,12.61-33.49h0ZM122.91,66.04c-2.05,3.72-4.16,6.22-5.6,7.58.09-.57.19-1.2.29-1.79.84-5.02,2.24-13.42.91-25.01-.65-5.63-1.71-10.02-2.49-13.22-.36-1.48-.76-3.11-.88-4.1,1.03.41,2.88,1.53,5.09,3.82,1.72,1.79,4.84,5.54,6.31,10.57,1.11,3.81,2.12,11.74-3.62,22.16h-.01ZM114.48,88.11c-.44-1.24-.7-2.53-.78-3.83-.03-.48-.31-.9-.74-1.11-.18-.09-.38-.13-.57-.13-.27,0-.53.08-.76.24-.61.43-1.26.82-1.94,1.16-1.85.94-3.82,1.48-5.85,1.63-.48.03-.9.32-1.1.76-.2.43-.15.94.13,1.33.77,1.05,1.38,2.21,1.82,3.45s.7,2.53.78,3.83c.03.48.31.9.74,1.11.18.09.38.13.57.13.27,0,.53-.08.76-.24.61-.43,1.26-.82,1.94-1.16,1.86-.94,3.82-1.48,5.85-1.63.48-.03.9-.32,1.1-.76.2-.43.15-.94-.13-1.33-.76-1.05-1.38-2.21-1.82-3.45ZM108.29,92.92c-.15.08-.31.16-.46.24-.16-.83-.38-1.64-.67-2.44-.28-.8-.63-1.57-1.03-2.3,1.63-.31,3.22-.86,4.74-1.63.15-.08.31-.16.46-.24.16.83.38,1.64.67,2.44.28.8.63,1.57,1.03,2.3-1.63.31-3.22.86-4.74,1.63Z" fill="#403b3a"/>
      </g>
    </g>
  </g>
</svg>