<?xml version="1.0" encoding="UTF-8"?>
<svg xmlns="http://www.w3.org/2000/svg" version="1.1" viewBox="0 0 141.44 136.77">
  <!-- Generator: Adobe Illustrator 29.3.1, SVG Export Plug-In . SVG Version: 2.1.0 Build 151)  -->
  <g id="Livello_3">
    <path d="M36.18,136.77c-3.27,0-6.38-1.42-8.54-3.91-2.13-2.45-3.09-5.71-2.64-8.95l4.92-35.26L3.67,64.64c-3.19-2.92-4.42-7.32-3.22-11.48,1.21-4.16,4.61-7.21,8.87-7.96l35.06-6.22L59.1,6.61c1.86-4.08,5.79-6.61,10.28-6.61.83,0,1.68.1,2.53.29h0c3.18.72,5.88,2.8,7.42,5.69l16.75,31.42,35.34,3.99c4.3.49,7.88,3.32,9.35,7.39,1.46,4.07.51,8.54-2.49,11.65l-24.71,25.64,7.12,34.84c.68,3.34-.16,6.75-2.3,9.38-2.17,2.66-5.36,4.18-8.75,4.18-1.71,0-3.38-.39-4.94-1.15l-32.02-15.58-30.94,17.54c-1.71.97-3.63,1.48-5.56,1.48ZM11.41,56.35l26.18,23.98c2.74,2.51,4.07,6.2,3.56,9.88l-4.91,35.16,30.89-17.49c3.17-1.79,7.21-1.92,10.5-.33l31.92,15.53-7.09-34.79c-.74-3.64.35-7.41,2.93-10.09l24.64-25.56-35.27-4.01c-3.69-.42-6.94-2.63-8.69-5.91l-16.71-31.35-14.7,32.33c-1.54,3.38-4.64,5.79-8.3,6.44l-34.96,6.2ZM130.15,52.62l4.04,3.89-4.04-3.89Z" fill="#fff"/>
  </g>
  <g id="Livello_1">
    <g id="Star">
      <path d="M65.98,9.74l-14.76,32.41c-1.02,2.25-3.09,3.85-5.52,4.28l-35.06,6.22c-1.43.25-2.53,1.24-2.94,2.64-.41,1.4,0,2.82,1.06,3.8l26.26,24.05c1.82,1.67,2.7,4.12,2.36,6.57l-4.92,35.27c-.31,2.21,1.26,3.8,2.9,4.17.63.14,1.59.19,2.64-.41l30.99-17.54c1.63-.92,3.53-1.2,5.36-.79.56.13,1.1.32,1.61.57l32.02,15.58c.27.13.56.23.84.3,1.22.28,2.49-.1,3.42-1,.92-.9,1.3-2.14,1.04-3.41l-7.11-34.89c-.49-2.42.24-4.92,1.95-6.7l24.71-25.64c.96-1,1.29-2.33.89-3.65-.39-1.31-1.41-2.28-2.72-2.58-.14-.03-.29-.06-.44-.07l-35.38-4.02c-.28-.03-.55-.08-.82-.14-2.12-.48-3.93-1.86-4.95-3.78l-16.75-31.42c-.52-.97-1.38-1.64-2.44-1.88l.42-1.83h0l-.42,1.83c-1.44-.33-3.39.19-4.26,2.09Z" fill="#fbd100"/>
      <path d="M134.19,56.51c3.23-3.35,1.22-8.95-3.41-9.48l-35.38-4.02c-1.84-.21-3.45-1.31-4.32-2.94l-16.75-31.42c-1.06-1.99-3.01-2.98-4.95-2.98-2.06,0-4.12,1.11-5.12,3.29l-14.76,32.41c-.77,1.68-2.31,2.88-4.13,3.2l-35.06,6.22c-4.58.81-6.25,6.53-2.81,9.67l26.26,24.05c1.36,1.25,2.03,3.09,1.77,4.92l-4.92,35.27c-.5,3.59,2.36,6.41,5.57,6.41.92,0,1.86-.23,2.76-.74l30.99-17.54c.86-.49,1.81-.73,2.77-.73.84,0,1.68.19,2.46.57l32.02,15.58c.82.4,1.65.58,2.46.58,3.34,0,6.25-3.08,5.5-6.75l-7.11-34.89c-.37-1.81.18-3.69,1.46-5.02l24.71-25.64ZM102.14,88.36l6.95,34.13-31.32-15.24c-1.57-.77-3.33-1.17-5.08-1.17-2,0-3.98.52-5.72,1.51l-30.31,17.16,4.82-34.5c.53-3.79-.84-7.59-3.66-10.17l-25.69-23.52,34.3-6.08c3.77-.67,6.96-3.14,8.55-6.62l14.44-31.7,16.38,30.74c1.8,3.38,5.14,5.65,8.94,6.08l34.61,3.93-24.17,25.08c-2.65,2.75-3.78,6.63-3.02,10.38Z" fill="#403b3a"/>
    </g>
  </g>
</svg>